<svg xmlns="http://www.w3.org/2000/svg" viewBox="0 0 512 512"><defs><style>.cls-1{isolation:isolate;}.cls-2{fill:url(#linear-gradient);}.cls-3{mix-blend-mode:soft-light;fill:url(#linear-gradient-2);}.cls-4{fill:#384a72;}.cls-5{fill:#fff;}</style><linearGradient id="linear-gradient" x1="32.19" y1="31.08" x2="482.37" y2="481.25" gradientUnits="userSpaceOnUse"><stop offset="0" stop-color="#5c57c0"/><stop offset="1" stop-color="#5c95c0"/></linearGradient><linearGradient id="linear-gradient-2" x1="253.51" y1="252.19" x2="481.03" y2="479.7" gradientUnits="userSpaceOnUse"><stop offset="0" stop-color="#333"/><stop offset="1" stop-color="#666"/></linearGradient></defs><title>logo</title><g class="cls-1"><g id="Layer_2" data-name="Layer 2"><g id="Layer_1-2" data-name="Layer 1"><path class="cls-2" d="M424,512H128C48.35,512,0,463.65,0,404V108A108,108,0,0,1,108,0H404A108,108,0,0,1,512,108V404C512,463.65,463.65,512,424,512Z"/><path class="cls-3" d="M378.11,143,351.4,168l3.66,185.21-180-20-39.86,37.32L290,512H404A108,108,0,0,0,512,404V273.94Z"/><path class="cls-4" d="M338.48,123.51H256.06v265h82.42a50,50,0,0,0,50-50v-165A50,50,0,0,0,338.48,123.51Z"/><path class="cls-5" d="M338.48,123.51h-165a50,50,0,0,0-50,50v165a50,50,0,0,0,50,50h165a50,50,0,0,0,50-50v-165A50,50,0,0,0,338.48,123.51Zm6.73,121A48.2,48.2,0,0,1,334,262.14h0l-76.17,75.67a2.34,2.34,0,0,1-3.28,0l-73.43-72.95a47.6,47.6,0,0,1-5.38-5.34,48.36,48.36,0,0,1-8.94-15.39,48.14,48.14,0,0,1,89.27-35.83,48.14,48.14,0,0,1,89.15,36.17Z"/></g></g></g></svg>