<svg xmlns="http://www.w3.org/2000/svg"
width="24"
height="24"
viewBox="-84 -84 640 640" >

<path
    fill="currentColor"
    d="m359.125,256 l-22.625,22.625 63.199,63.199h-65.824c-18.191,0.051 -34.836,-10.234 -42.926,-26.527l-42.738,-85.473 42.738,-85.473c8.09,-16.293 24.734,-26.578 42.926,-26.527h65.824l-63.199,63.199 22.625,22.625 90.512,-90.512c6.246,-6.25 6.246,-16.375 0,-22.625l-90.512,-90.512 -22.625,22.625 63.199,63.199h-65.824c-30.328,-0.098 -58.074,17.051 -71.551,44.223l-32,64 -32,-64c-13.477,-27.172 -41.223,-44.32 -71.551,-44.223h-120.449v32h120.449c18.191,-0.051 34.836,10.234 42.926,26.527l42.738,85.473 -42.738,85.473c-8.09,16.293 -24.734,26.578 -42.926,26.527h-120.449v32h120.449c30.328,0.098 58.074,-17.055 71.551,-44.223l32,-64 32,64c13.477,27.168 41.223,44.32 71.551,44.223h65.824l-63.199,63.199 22.625,22.625 90.512,-90.512c6.246,-6.25 6.246,-16.375 0,-22.625zM359.125,256"/>
</svg>